# 3ds Max Wavefront OBJ Exporter v0.97b - (c)2007 guruware
# File Created: 13.12.2019 00:10:56

mtllib Cylinder.mtl

#
# object Cone001
#

v  0.0000 -1.5000 -0.0000
v  0.4045 -1.5000 -0.2939
v  0.5000 -1.5000 -0.0000
v  0.1545 -1.5000 -0.4755
v  -0.1545 -1.5000 -0.4755
v  -0.4045 -1.5000 -0.2939
v  -0.5000 -1.5000 0.0000
v  -0.4045 -1.5000 0.2939
v  -0.1545 -1.5000 0.4755
v  0.1545 -1.5000 0.4755
v  0.4045 -1.5000 0.2939
v  0.3883 -1.2000 -0.2821
v  0.4800 -1.2000 -0.0000
v  0.1483 -1.2000 -0.4565
v  -0.1483 -1.2000 -0.4565
v  -0.3883 -1.2000 -0.2821
v  -0.4800 -1.2000 0.0000
v  -0.3883 -1.2000 0.2821
v  -0.1483 -1.2000 0.4565
v  0.1483 -1.2000 0.4565
v  0.3883 -1.2000 0.2821
v  0.3721 -0.9000 -0.2704
v  0.4600 -0.9000 -0.0000
v  0.1421 -0.9000 -0.4375
v  -0.1421 -0.9000 -0.4375
v  -0.3721 -0.9000 -0.2704
v  -0.4600 -0.9000 0.0000
v  -0.3721 -0.9000 0.2704
v  -0.1421 -0.9000 0.4375
v  0.1421 -0.9000 0.4375
v  0.3721 -0.9000 0.2704
v  0.3560 -0.6000 -0.2586
v  0.4400 -0.6000 -0.0000
v  0.1360 -0.6000 -0.4185
v  -0.1360 -0.6000 -0.4185
v  -0.3560 -0.6000 -0.2586
v  -0.4400 -0.6000 0.0000
v  -0.3560 -0.6000 0.2586
v  -0.1360 -0.6000 0.4185
v  0.1360 -0.6000 0.4185
v  0.3560 -0.6000 0.2586
v  0.3398 -0.3000 -0.2469
v  0.4200 -0.3000 -0.0000
v  0.1298 -0.3000 -0.3994
v  -0.1298 -0.3000 -0.3994
v  -0.3398 -0.3000 -0.2469
v  -0.4200 -0.3000 0.0000
v  -0.3398 -0.3000 0.2469
v  -0.1298 -0.3000 0.3994
v  0.1298 -0.3000 0.3994
v  0.3398 -0.3000 0.2469
v  0.3236 0.0000 -0.2351
v  0.4000 0.0000 -0.0000
v  0.1236 0.0000 -0.3804
v  -0.1236 0.0000 -0.3804
v  -0.3236 0.0000 -0.2351
v  -0.4000 0.0000 0.0000
v  -0.3236 0.0000 0.2351
v  -0.1236 0.0000 0.3804
v  0.1236 0.0000 0.3804
v  0.3236 0.0000 0.2351
v  0.3074 0.3000 -0.2234
v  0.3800 0.3000 -0.0000
v  0.1174 0.3000 -0.3614
v  -0.1174 0.3000 -0.3614
v  -0.3074 0.3000 -0.2234
v  -0.3800 0.3000 0.0000
v  -0.3074 0.3000 0.2234
v  -0.1174 0.3000 0.3614
v  0.1174 0.3000 0.3614
v  0.3074 0.3000 0.2234
v  0.2912 0.6000 -0.2116
v  0.3600 0.6000 -0.0000
v  0.1112 0.6000 -0.3424
v  -0.1112 0.6000 -0.3424
v  -0.2912 0.6000 -0.2116
v  -0.3600 0.6000 0.0000
v  -0.2912 0.6000 0.2116
v  -0.1112 0.6000 0.3424
v  0.1112 0.6000 0.3424
v  0.2912 0.6000 0.2116
v  0.2751 0.9000 -0.1998
v  0.3400 0.9000 -0.0000
v  0.1051 0.9000 -0.3234
v  -0.1051 0.9000 -0.3234
v  -0.2751 0.9000 -0.1998
v  -0.3400 0.9000 0.0000
v  -0.2751 0.9000 0.1998
v  -0.1051 0.9000 0.3234
v  0.1051 0.9000 0.3234
v  0.2751 0.9000 0.1998
v  0.2589 1.2000 -0.1881
v  0.3200 1.2000 -0.0000
v  0.0989 1.2000 -0.3043
v  -0.0989 1.2000 -0.3043
v  -0.2589 1.2000 -0.1881
v  -0.3200 1.2000 0.0000
v  -0.2589 1.2000 0.1881
v  -0.0989 1.2000 0.3043
v  0.0989 1.2000 0.3043
v  0.2589 1.2000 0.1881
v  0.2427 1.5000 -0.1763
v  0.3000 1.5000 -0.0000
v  0.0927 1.5000 -0.2853
v  -0.0927 1.5000 -0.2853
v  -0.2427 1.5000 -0.1763
v  -0.3000 1.5000 0.0000
v  -0.2427 1.5000 0.1763
v  -0.0927 1.5000 0.2853
v  0.0927 1.5000 0.2853
v  0.2427 1.5000 0.1763
v  0.0000 1.5000 -0.0000
# 112 vertices

vn 0.0000 -1.0000 -0.0000
vn 0.9978 0.0665 -0.0000
vn 0.8072 0.0665 -0.5865
vn 0.3083 0.0665 -0.9490
vn -0.3083 0.0665 -0.9490
vn -0.8072 0.0665 -0.5865
vn -0.9978 0.0665 0.0000
vn -0.8072 0.0665 0.5865
vn -0.3083 0.0665 0.9490
vn 0.3083 0.0665 0.9490
vn 0.8072 0.0665 0.5865
vn 0.0000 1.0000 -0.0000
# 12 vertex normals

vt 0.5000 0.0000 0.0000
vt 0.8500 0.0000 1.0000
vt 0.7500 0.0000 1.0000
vt 0.9500 0.0000 1.0000
vt 0.0500 0.0000 1.0000
vt -0.0500 0.0000 1.0000
vt 0.1500 0.0000 1.0000
vt 0.2500 0.0000 1.0000
vt 0.3500 0.0000 1.0000
vt 0.4500 0.0000 1.0000
vt 0.5500 0.0000 1.0000
vt 0.6500 0.0000 1.0000
vt 0.8500 0.1000 0.9600
vt 0.7500 0.1000 0.9600
vt 0.9500 0.1000 0.9600
vt 0.0500 0.1000 0.9600
vt -0.0500 0.1000 0.9600
vt 0.1500 0.1000 0.9600
vt 0.2500 0.1000 0.9600
vt 0.3500 0.1000 0.9600
vt 0.4500 0.1000 0.9600
vt 0.5500 0.1000 0.9600
vt 0.6500 0.1000 0.9600
vt 0.8500 0.2000 0.9200
vt 0.7500 0.2000 0.9200
vt 0.9500 0.2000 0.9200
vt 0.0500 0.2000 0.9200
vt -0.0500 0.2000 0.9200
vt 0.1500 0.2000 0.9200
vt 0.2500 0.2000 0.9200
vt 0.3500 0.2000 0.9200
vt 0.4500 0.2000 0.9200
vt 0.5500 0.2000 0.9200
vt 0.6500 0.2000 0.9200
vt 0.8500 0.3000 0.8800
vt 0.7500 0.3000 0.8800
vt 0.9500 0.3000 0.8800
vt 0.0500 0.3000 0.8800
vt -0.0500 0.3000 0.8800
vt 0.1500 0.3000 0.8800
vt 0.2500 0.3000 0.8800
vt 0.3500 0.3000 0.8800
vt 0.4500 0.3000 0.8800
vt 0.5500 0.3000 0.8800
vt 0.6500 0.3000 0.8800
vt 0.8500 0.4000 0.8400
vt 0.7500 0.4000 0.8400
vt 0.9500 0.4000 0.8400
vt 0.0500 0.4000 0.8400
vt -0.0500 0.4000 0.8400
vt 0.1500 0.4000 0.8400
vt 0.2500 0.4000 0.8400
vt 0.3500 0.4000 0.8400
vt 0.4500 0.4000 0.8400
vt 0.5500 0.4000 0.8400
vt 0.6500 0.4000 0.8400
vt 0.8500 0.5000 0.8000
vt 0.7500 0.5000 0.8000
vt 0.9500 0.5000 0.8000
vt 0.0500 0.5000 0.8000
vt -0.0500 0.5000 0.8000
vt 0.1500 0.5000 0.8000
vt 0.2500 0.5000 0.8000
vt 0.3500 0.5000 0.8000
vt 0.4500 0.5000 0.8000
vt 0.5500 0.5000 0.8000
vt 0.6500 0.5000 0.8000
vt 0.8500 0.6000 0.7600
vt 0.7500 0.6000 0.7600
vt 0.9500 0.6000 0.7600
vt 0.0500 0.6000 0.7600
vt -0.0500 0.6000 0.7600
vt 0.1500 0.6000 0.7600
vt 0.2500 0.6000 0.7600
vt 0.3500 0.6000 0.7600
vt 0.4500 0.6000 0.7600
vt 0.5500 0.6000 0.7600
vt 0.6500 0.6000 0.7600
vt 0.8500 0.7000 0.7200
vt 0.7500 0.7000 0.7200
vt 0.9500 0.7000 0.7200
vt 0.0500 0.7000 0.7200
vt -0.0500 0.7000 0.7200
vt 0.1500 0.7000 0.7200
vt 0.2500 0.7000 0.7200
vt 0.3500 0.7000 0.7200
vt 0.4500 0.7000 0.7200
vt 0.5500 0.7000 0.7200
vt 0.6500 0.7000 0.7200
vt 0.8500 0.8000 0.6800
vt 0.7500 0.8000 0.6800
vt 0.9500 0.8000 0.6800
vt 0.0500 0.8000 0.6800
vt -0.0500 0.8000 0.6800
vt 0.1500 0.8000 0.6800
vt 0.2500 0.8000 0.6800
vt 0.3500 0.8000 0.6800
vt 0.4500 0.8000 0.6800
vt 0.5500 0.8000 0.6800
vt 0.6500 0.8000 0.6800
vt 0.8500 0.9000 0.6400
vt 0.7500 0.9000 0.6400
vt 0.9500 0.9000 0.6400
vt 0.0500 0.9000 0.6400
vt -0.0500 0.9000 0.6400
vt 0.1500 0.9000 0.6400
vt 0.2500 0.9000 0.6400
vt 0.3500 0.9000 0.6400
vt 0.4500 0.9000 0.6400
vt 0.5500 0.9000 0.6400
vt 0.6500 0.9000 0.6400
vt 0.8500 1.0000 0.6000
vt 0.7500 1.0000 0.6000
vt 0.9500 1.0000 0.6000
vt 0.0500 1.0000 0.6000
vt -0.0500 1.0000 0.6000
vt 0.1500 1.0000 0.6000
vt 0.2500 1.0000 0.6000
vt 0.3500 1.0000 0.6000
vt 0.4500 1.0000 0.6000
vt 0.5500 1.0000 0.6000
vt 0.6500 1.0000 0.6000
vt 0.5000 1.0000 0.0000
# 123 texture coords

o Cone001
g Cone001
usemtl wire_214229166
f 1/1/1 2/2/1 3/3/1 
f 1/1/1 4/4/1 2/2/1 
f 1/1/1 5/5/1 4/6/1 
f 1/1/1 6/7/1 5/5/1 
f 1/1/1 7/8/1 6/7/1 
f 1/1/1 8/9/1 7/8/1 
f 1/1/1 9/10/1 8/9/1 
f 1/1/1 10/11/1 9/10/1 
f 1/1/1 11/12/1 10/11/1 
f 1/1/1 3/3/1 11/12/1 
f 3/3/2 12/13/3 13/14/2 
f 3/3/2 2/2/3 12/13/3 
f 2/2/3 14/15/4 12/13/3 
f 2/2/3 4/4/4 14/15/4 
f 4/6/4 15/16/5 14/17/4 
f 4/6/4 5/5/5 15/16/5 
f 5/5/5 16/18/6 15/16/5 
f 5/5/5 6/7/6 16/18/6 
f 6/7/6 17/19/7 16/18/6 
f 6/7/6 7/8/7 17/19/7 
f 7/8/7 18/20/8 17/19/7 
f 7/8/7 8/9/8 18/20/8 
f 8/9/8 19/21/9 18/20/8 
f 8/9/8 9/10/9 19/21/9 
f 9/10/9 20/22/10 19/21/9 
f 9/10/9 10/11/10 20/22/10 
f 10/11/10 21/23/11 20/22/10 
f 10/11/10 11/12/11 21/23/11 
f 11/12/11 13/14/2 21/23/11 
f 11/12/11 3/3/2 13/14/2 
f 13/14/2 22/24/3 23/25/2 
f 13/14/2 12/13/3 22/24/3 
f 12/13/3 24/26/4 22/24/3 
f 12/13/3 14/15/4 24/26/4 
f 14/17/4 25/27/5 24/28/4 
f 14/17/4 15/16/5 25/27/5 
f 15/16/5 26/29/6 25/27/5 
f 15/16/5 16/18/6 26/29/6 
f 16/18/6 27/30/7 26/29/6 
f 16/18/6 17/19/7 27/30/7 
f 17/19/7 28/31/8 27/30/7 
f 17/19/7 18/20/8 28/31/8 
f 18/20/8 29/32/9 28/31/8 
f 18/20/8 19/21/9 29/32/9 
f 19/21/9 30/33/10 29/32/9 
f 19/21/9 20/22/10 30/33/10 
f 20/22/10 31/34/11 30/33/10 
f 20/22/10 21/23/11 31/34/11 
f 21/23/11 23/25/2 31/34/11 
f 21/23/11 13/14/2 23/25/2 
f 23/25/2 32/35/3 33/36/2 
f 23/25/2 22/24/3 32/35/3 
f 22/24/3 34/37/4 32/35/3 
f 22/24/3 24/26/4 34/37/4 
f 24/28/4 35/38/5 34/39/4 
f 24/28/4 25/27/5 35/38/5 
f 25/27/5 36/40/6 35/38/5 
f 25/27/5 26/29/6 36/40/6 
f 26/29/6 37/41/7 36/40/6 
f 26/29/6 27/30/7 37/41/7 
f 27/30/7 38/42/8 37/41/7 
f 27/30/7 28/31/8 38/42/8 
f 28/31/8 39/43/9 38/42/8 
f 28/31/8 29/32/9 39/43/9 
f 29/32/9 40/44/10 39/43/9 
f 29/32/9 30/33/10 40/44/10 
f 30/33/10 41/45/11 40/44/10 
f 30/33/10 31/34/11 41/45/11 
f 31/34/11 33/36/2 41/45/11 
f 31/34/11 23/25/2 33/36/2 
f 33/36/2 42/46/3 43/47/2 
f 33/36/2 32/35/3 42/46/3 
f 32/35/3 44/48/4 42/46/3 
f 32/35/3 34/37/4 44/48/4 
f 34/39/4 45/49/5 44/50/4 
f 34/39/4 35/38/5 45/49/5 
f 35/38/5 46/51/6 45/49/5 
f 35/38/5 36/40/6 46/51/6 
f 36/40/6 47/52/7 46/51/6 
f 36/40/6 37/41/7 47/52/7 
f 37/41/7 48/53/8 47/52/7 
f 37/41/7 38/42/8 48/53/8 
f 38/42/8 49/54/9 48/53/8 
f 38/42/8 39/43/9 49/54/9 
f 39/43/9 50/55/10 49/54/9 
f 39/43/9 40/44/10 50/55/10 
f 40/44/10 51/56/11 50/55/10 
f 40/44/10 41/45/11 51/56/11 
f 41/45/11 43/47/2 51/56/11 
f 41/45/11 33/36/2 43/47/2 
f 43/47/2 52/57/3 53/58/2 
f 43/47/2 42/46/3 52/57/3 
f 42/46/3 54/59/4 52/57/3 
f 42/46/3 44/48/4 54/59/4 
f 44/50/4 55/60/5 54/61/4 
f 44/50/4 45/49/5 55/60/5 
f 45/49/5 56/62/6 55/60/5 
f 45/49/5 46/51/6 56/62/6 
f 46/51/6 57/63/7 56/62/6 
f 46/51/6 47/52/7 57/63/7 
f 47/52/7 58/64/8 57/63/7 
f 47/52/7 48/53/8 58/64/8 
f 48/53/8 59/65/9 58/64/8 
f 48/53/8 49/54/9 59/65/9 
f 49/54/9 60/66/10 59/65/9 
f 49/54/9 50/55/10 60/66/10 
f 50/55/10 61/67/11 60/66/10 
f 50/55/10 51/56/11 61/67/11 
f 51/56/11 53/58/2 61/67/11 
f 51/56/11 43/47/2 53/58/2 
f 53/58/2 62/68/3 63/69/2 
f 53/58/2 52/57/3 62/68/3 
f 52/57/3 64/70/4 62/68/3 
f 52/57/3 54/59/4 64/70/4 
f 54/61/4 65/71/5 64/72/4 
f 54/61/4 55/60/5 65/71/5 
f 55/60/5 66/73/6 65/71/5 
f 55/60/5 56/62/6 66/73/6 
f 56/62/6 67/74/7 66/73/6 
f 56/62/6 57/63/7 67/74/7 
f 57/63/7 68/75/8 67/74/7 
f 57/63/7 58/64/8 68/75/8 
f 58/64/8 69/76/9 68/75/8 
f 58/64/8 59/65/9 69/76/9 
f 59/65/9 70/77/10 69/76/9 
f 59/65/9 60/66/10 70/77/10 
f 60/66/10 71/78/11 70/77/10 
f 60/66/10 61/67/11 71/78/11 
f 61/67/11 63/69/2 71/78/11 
f 61/67/11 53/58/2 63/69/2 
f 63/69/2 72/79/3 73/80/2 
f 63/69/2 62/68/3 72/79/3 
f 62/68/3 74/81/4 72/79/3 
f 62/68/3 64/70/4 74/81/4 
f 64/72/4 75/82/5 74/83/4 
f 64/72/4 65/71/5 75/82/5 
f 65/71/5 76/84/6 75/82/5 
f 65/71/5 66/73/6 76/84/6 
f 66/73/6 77/85/7 76/84/6 
f 66/73/6 67/74/7 77/85/7 
f 67/74/7 78/86/8 77/85/7 
f 67/74/7 68/75/8 78/86/8 
f 68/75/8 79/87/9 78/86/8 
f 68/75/8 69/76/9 79/87/9 
f 69/76/9 80/88/10 79/87/9 
f 69/76/9 70/77/10 80/88/10 
f 70/77/10 81/89/11 80/88/10 
f 70/77/10 71/78/11 81/89/11 
f 71/78/11 73/80/2 81/89/11 
f 71/78/11 63/69/2 73/80/2 
f 73/80/2 82/90/3 83/91/2 
f 73/80/2 72/79/3 82/90/3 
f 72/79/3 84/92/4 82/90/3 
f 72/79/3 74/81/4 84/92/4 
f 74/83/4 85/93/5 84/94/4 
f 74/83/4 75/82/5 85/93/5 
f 75/82/5 86/95/6 85/93/5 
f 75/82/5 76/84/6 86/95/6 
f 76/84/6 87/96/7 86/95/6 
f 76/84/6 77/85/7 87/96/7 
f 77/85/7 88/97/8 87/96/7 
f 77/85/7 78/86/8 88/97/8 
f 78/86/8 89/98/9 88/97/8 
f 78/86/8 79/87/9 89/98/9 
f 79/87/9 90/99/10 89/98/9 
f 79/87/9 80/88/10 90/99/10 
f 80/88/10 91/100/11 90/99/10 
f 80/88/10 81/89/11 91/100/11 
f 81/89/11 83/91/2 91/100/11 
f 81/89/11 73/80/2 83/91/2 
f 83/91/2 92/101/3 93/102/2 
f 83/91/2 82/90/3 92/101/3 
f 82/90/3 94/103/4 92/101/3 
f 82/90/3 84/92/4 94/103/4 
f 84/94/4 95/104/5 94/105/4 
f 84/94/4 85/93/5 95/104/5 
f 85/93/5 96/106/6 95/104/5 
f 85/93/5 86/95/6 96/106/6 
f 86/95/6 97/107/7 96/106/6 
f 86/95/6 87/96/7 97/107/7 
f 87/96/7 98/108/8 97/107/7 
f 87/96/7 88/97/8 98/108/8 
f 88/97/8 99/109/9 98/108/8 
f 88/97/8 89/98/9 99/109/9 
f 89/98/9 100/110/10 99/109/9 
f 89/98/9 90/99/10 100/110/10 
f 90/99/10 101/111/11 100/110/10 
f 90/99/10 91/100/11 101/111/11 
f 91/100/11 93/102/2 101/111/11 
f 91/100/11 83/91/2 93/102/2 
f 93/102/2 102/112/3 103/113/2 
f 93/102/2 92/101/3 102/112/3 
f 92/101/3 104/114/4 102/112/3 
f 92/101/3 94/103/4 104/114/4 
f 94/105/4 105/115/5 104/116/4 
f 94/105/4 95/104/5 105/115/5 
f 95/104/5 106/117/6 105/115/5 
f 95/104/5 96/106/6 106/117/6 
f 96/106/6 107/118/7 106/117/6 
f 96/106/6 97/107/7 107/118/7 
f 97/107/7 108/119/8 107/118/7 
f 97/107/7 98/108/8 108/119/8 
f 98/108/8 109/120/9 108/119/8 
f 98/108/8 99/109/9 109/120/9 
f 99/109/9 110/121/10 109/120/9 
f 99/109/9 100/110/10 110/121/10 
f 100/110/10 111/122/11 110/121/10 
f 100/110/10 101/111/11 111/122/11 
f 101/111/11 103/113/2 111/122/11 
f 101/111/11 93/102/2 103/113/2 
f 112/123/12 103/113/12 102/112/12 
f 112/123/12 102/112/12 104/114/12 
f 112/123/12 104/116/12 105/115/12 
f 112/123/12 105/115/12 106/117/12 
f 112/123/12 106/117/12 107/118/12 
f 112/123/12 107/118/12 108/119/12 
f 112/123/12 108/119/12 109/120/12 
f 112/123/12 109/120/12 110/121/12 
f 112/123/12 110/121/12 111/122/12 
f 112/123/12 111/122/12 103/113/12 
# 220 faces

